<?xml version="1.0" encoding="utf-8" ?>
<svg xmlns="http://www.w3.org/2000/svg" xmlns:xlink="http://www.w3.org/1999/xlink" width="4096" height="4096">
	<path transform="scale(6.4 6.4)" d="M217.031 417.817L139.988 417.813C108.735 417.796 86.3597 399.775 85.3713 368.336L85.2841 288.595C85.2829 279.673 84.6944 270.943 86.5963 262.166C90.6522 243.447 106.183 230.239 124.087 225.272C129.862 223.669 136.485 224.012 142.423 224.007L221.271 223.976C224.179 223.976 235.567 224.63 237.526 223.272L375.938 127.146C383.165 122.077 389.997 115.245 398.808 113.19C417.611 111.38 418.95 127.657 418.938 141.846L418.915 505.193C418.906 507.678 419.112 510.517 418.562 512.94C416.259 523.096 406.522 530.722 395.869 527.373C392.724 526.385 390.039 524.414 387.34 522.58L246.363 424.883C239.504 420.044 239.306 417.853 230.835 417.825L217.031 417.817Z"/>
	<path transform="scale(6.4 6.4)" d="M471.377 385.212L470 385.317C453.193 385.906 441.901 370.558 449.754 356.504C451.955 352.565 455.397 349.414 458.558 346.253L483.334 321.084L462.278 299.68C457.762 295.205 451.186 289.828 448.798 283.906C442.275 267.728 461.441 250.646 476.306 259.277C480.083 261.47 483.348 264.787 486.453 267.824L511.949 292.696C516.674 287.48 522.228 282.836 527.301 277.936L538.527 266.913C544.123 261.381 547.883 257.548 556.016 256.678C571.563 255.011 582.63 274.126 574.289 287.103C572.387 290.063 569.643 292.478 567.122 294.897L556.235 305.291C550.935 310.464 546.031 316.056 540.467 320.954C543.616 324.833 547.499 328.364 551.046 331.886L569.097 349.411C590.365 369.213 565.259 394.238 547.188 383.373C541.904 380.196 537.47 374.471 533.053 370.172L511.743 349.648C505.945 356.45 499.324 362.315 492.943 368.549C486.379 374.962 480.547 382.631 471.377 385.212Z"/>
</svg>
